<?xml version="1.0" encoding="UTF-8" standalone="no"?>
<!-- Created with Inkscape (http://www.inkscape.org/) -->

<svg
   width="512"
   height="512"
   viewBox="0 0 135.46666 135.46667"
   version="1.1"
   id="svg1"
   xml:space="preserve"
   xmlns="http://www.w3.org/2000/svg"
   xmlns:svg="http://www.w3.org/2000/svg"><defs
     id="defs1" /><g
     id="layer1"><rect
       style="fill:#f76d31;fill-opacity:1;stroke:none;stroke-width:2.90208"
       id="rect26"
       width="135.46666"
       height="135.46666"
       x="0"
       y="0" /><g
       id="g30"><circle
         style="fill:#58b567;fill-opacity:1;stroke:none;stroke-width:0.325641"
         id="path28"
         cx="89.543762"
         cy="32.257999"
         r="3.5595038" /><circle
         style="fill:#cf6d23;fill-opacity:1;stroke:none;stroke-width:0.325641"
         id="circle28"
         cx="74.972038"
         cy="32.257999"
         r="3.5595038" /><circle
         style="fill:#f6b622;fill-opacity:1;stroke:none;stroke-width:0.325641"
         id="circle29"
         cx="60.400322"
         cy="32.257999"
         r="3.5595038" /><circle
         style="fill:#538fd5;fill-opacity:1;stroke:none;stroke-width:0.325641"
         id="circle30"
         cx="45.828606"
         cy="32.146763"
         r="3.5595038" /></g><path
       id="rect30"
       style="fill:#5d636c;fill-opacity:1;stroke-width:0.256937"
       d="m 42.880891,77.419212 h 49.610587 c 11.459792,0 13.626222,10.305694 13.626222,18.520544 0,5.453714 -4.39054,9.844244 -9.844249,9.844244 H 39.543856 c -5.453714,0 -9.844248,-4.39053 -9.844248,-9.844244 -0.05175,-8.268706 1.830712,-18.520544 13.181283,-18.520544 z" /><path
       id="rect31"
       style="fill:#a2a2a2;fill-opacity:1;stroke:none;stroke-width:0.264583"
       d="m 39.321631,86.762663 c -5.268839,0 -9.510531,4.241692 -9.510531,9.51053 0,5.268837 4.241692,9.511047 9.510531,9.511047 h 56.395524 c 5.268835,0 9.510535,-4.24221 9.510535,-9.511047 0,-5.268838 -4.2417,-9.51053 -9.510535,-9.51053 z m 1.398881,5.249292 a 4.1402717,4.1402717 0 0 1 4.140316,4.140316 4.1402717,4.1402717 0 0 1 -4.140316,4.139799 4.1402717,4.1402717 0 0 1 -4.140316,-4.139799 4.1402717,4.1402717 0 0 1 4.140316,-4.140316 z m 17.933272,0 a 4.1402717,4.1402717 0 0 1 4.140316,4.140316 4.1402717,4.1402717 0 0 1 -4.140316,4.139799 4.1402717,4.1402717 0 0 1 -4.140316,-4.139799 4.1402717,4.1402717 0 0 1 4.140316,-4.140316 z m 17.933272,0 a 4.1402717,4.1402717 0 0 1 4.140316,4.140316 4.1402717,4.1402717 0 0 1 -4.140316,4.139799 4.1402717,4.1402717 0 0 1 -4.140315,-4.139799 4.1402717,4.1402717 0 0 1 4.140315,-4.140316 z m 18.090886,0 a 4.1402717,4.1402717 0 0 1 4.139799,4.140316 4.1402717,4.1402717 0 0 1 -4.139799,4.139799 4.1402717,4.1402717 0 0 1 -4.140316,-4.139799 4.1402717,4.1402717 0 0 1 4.140316,-4.140316 z" /><path
       style="fill:#f7b73a;fill-opacity:1;stroke:none;stroke-width:0.264583"
       d="M 43.574681,77.238878 67.32839,85.576271 91.396716,77.081567 90.610168,47.822035 67.32839,41.057732 43.417373,47.979343 Z"
       id="path26" /><path
       style="fill:#58b567;fill-opacity:1;stroke:none;stroke-width:0.264583"
       d="m 38.068857,63.081038 0.157309,8.337393 18.09057,0.314618 1.455111,4.561971 8.769995,-9.12394 -9.595868,-9.12394 -0.471927,4.090041 z"
       id="path27" /><g
       id="g18"
       transform="translate(0.01038583,-0.01349498)"><g
         id="g26"><path
           style="fill:#323538"
           d="m 38.563019,106.87853 c -4.307562,-0.62828 -7.776207,-3.62758 -9.087889,-7.858223 -0.266153,-0.858436 -0.290841,-1.261214 -0.338177,-5.517134 -0.04251,-3.822541 -0.01534,-4.781715 0.162314,-5.729815 0.817256,-4.361414 3.683565,-8.218058 7.54396,-10.150463 1.424338,-0.712983 3.129423,-1.164548 5.126302,-1.35762 l 0.892969,-0.08634 v -1.709262 -1.709262 h -2.427832 c -2.300352,0 -2.450729,-0.01563 -2.863902,-0.297656 -0.239838,-0.163711 -0.547818,-0.506016 -0.684401,-0.760677 -0.230346,-0.429486 -0.245691,-0.766551 -0.21188,-4.653818 0.03476,-3.996099 0.04912,-4.207758 0.30921,-4.555888 0.651619,-0.872206 0.775444,-0.906545 3.440729,-0.954186 l 2.438076,-0.04358 V 54.501034 47.50746 l 0.297656,-0.330861 c 0.249662,-0.277513 0.990908,-0.51506 4.597135,-1.473244 2.364714,-0.628311 5.817526,-1.550662 7.672916,-2.04967 1.855391,-0.499007 3.96875,-1.064631 4.696354,-1.256941 0.727604,-0.19231 2.617811,-0.703785 4.20046,-1.136611 1.582649,-0.432826 3.07093,-0.793652 3.307292,-0.801835 0.236361,-0.0082 2.45381,0.534265 4.927664,1.205439 5.594362,1.517791 9.577095,2.595223 14.684375,3.972504 2.182812,0.588639 4.133666,1.13581 4.33523,1.215935 0.201564,0.08013 0.514103,0.321121 0.694531,0.535547 l 0.328051,0.389866 v 14.211204 14.211203 l 0.496094,5.32e-4 c 0.830818,8.91e-4 2.82364,0.369802 3.803385,0.704083 4.678199,1.596164 8.075129,5.45237 9.284139,10.539388 0.31955,1.344556 0.40436,8.646379 0.11959,10.296542 -0.75452,4.372209 -3.7614,7.689999 -8.080813,8.916379 l -1.058333,0.30049 -28.905728,0.0184 c -15.940683,0.0102 -29.261747,-0.0335 -29.699477,-0.0973 z m 59.548514,-2.53425 c 2.213597,-0.75027 4.211627,-2.47713 5.198417,-4.492876 0.70073,-1.431427 0.93588,-2.404734 0.93588,-3.873805 0,-2.3764 -0.74759,-4.132906 -2.50777,-5.89215 -1.1469,-1.146285 -1.993165,-1.691827 -3.541229,-2.282834 l -0.764024,-0.291682 -29.203529,-0.03481 c -32.504246,-0.03874 -30.132509,-0.103795 -32.169908,0.882363 -1.29768,0.628114 -2.699696,1.867209 -3.488456,3.083081 -1.155029,1.780477 -1.606709,4.227967 -1.166708,6.321967 0.588106,2.798836 2.885395,5.478516 5.505167,6.421506 1.640619,0.59055 0.58392,0.57199 31.154686,0.54725 l 28.971873,-0.0234 z m -58.267139,-2.9023 c -2.70189,-0.41059 -4.667021,-2.884276 -4.489687,-5.651577 0.08933,-1.394031 0.491102,-2.361161 1.379526,-3.320765 3.526511,-3.809053 9.784651,-1.084975 9.394532,4.089302 -0.08146,1.080378 -0.548288,2.201853 -1.286419,3.090379 -1.110653,1.336951 -3.15991,2.071971 -4.997952,1.792661 z m 1.854635,-2.296561 c 1.337731,-0.455811 2.221802,-1.65566 2.221802,-3.015399 0,-1.297654 -0.617565,-2.274318 -1.780531,-2.815866 -1.216071,-0.566276 -2.563859,-0.383779 -3.545207,0.480037 -1.858133,1.635595 -1.22392,4.506626 1.185363,5.366038 0.666983,0.237919 1.188673,0.233891 1.918573,-0.01481 z m 15.356663,2.075371 c -1.520607,-0.52539 -2.5918,-1.510674 -3.327212,-3.060378 -0.300094,-0.632376 -0.345514,-0.900747 -0.34704,-2.050521 -0.0016,-1.214519 0.03277,-1.395796 0.419591,-2.212357 1.704082,-3.59723 6.265712,-4.325156 8.948064,-1.427896 1.028712,1.111131 1.335562,1.943761 1.341547,3.640253 0.0043,1.213609 -0.02964,1.395315 -0.410491,2.199134 -0.462752,0.976665 -1.187966,1.849325 -1.92187,2.312625 -1.306617,0.82483 -3.310481,1.08014 -4.702589,0.59914 z m 3.317015,-2.375077 c 1.652319,-0.928435 2.079734,-2.969351 0.966495,-4.615038 -0.585544,-0.865602 -1.324035,-1.229638 -2.49447,-1.229638 -1.054873,0 -1.704828,0.231591 -2.339275,0.833527 -1.274479,1.209173 -1.28362,3.204037 -0.02047,4.467188 1.108409,1.108409 2.529353,1.307224 3.887719,0.543961 z m 14.542331,2.357457 c -1.987001,-0.70647 -3.39333,-2.51612 -3.567219,-4.590261 -0.245817,-2.932113 1.67648,-5.374505 4.619908,-5.869865 0.743329,-0.125098 1.056234,-0.113662 1.87517,0.06853 3.102268,0.690189 4.980086,3.818794 4.063554,6.770226 -0.539823,1.738347 -1.968661,3.19379 -3.615554,3.68286 -0.925511,0.27485 -2.511114,0.24597 -3.375859,-0.0615 z m 2.732406,-2.060522 c 0.916033,-0.272033 1.905414,-1.228128 2.129693,-2.058044 0.200086,-0.740392 0.09203,-1.786727 -0.254709,-2.46639 -0.885323,-1.735376 -3.366702,-2.179829 -4.890067,-0.875885 -0.79073,0.676835 -1.078198,1.308072 -1.078198,2.367562 0,1.48465 0.88198,2.69223 2.253791,3.085823 0.667885,0.191625 1.052929,0.180517 1.83949,-0.05307 z m 15.25926,2.067922 c -1.386488,-0.50784 -2.411695,-1.456101 -3.154619,-2.917867 -0.525766,-1.034488 -0.608449,-2.669334 -0.19935,-3.941634 0.451756,-1.404963 1.446511,-2.509079 2.832051,-3.1434 2.652428,-1.214322 5.684693,-0.224693 7.003948,2.285853 0.638176,1.214445 0.849256,2.382723 0.631366,3.494495 -0.364302,1.858907 -1.401063,3.228323 -3.018464,3.986963 -0.775206,0.36361 -1.055989,0.42285 -2.148516,0.45323 -0.973446,0.0271 -1.412243,-0.022 -1.946416,-0.21764 z m 2.923359,-2.129775 c 0.787359,-0.294589 1.564232,-1.034464 1.880182,-1.79064 0.615213,-1.47241 -0.24258,-3.474233 -1.76147,-4.110728 -0.722879,-0.302925 -2.001375,-0.228553 -2.785143,0.162015 -2.102426,1.047683 -2.309044,4.007869 -0.372732,5.340087 1.022154,0.703261 1.91364,0.820378 3.039163,0.399266 z m 8.352207,-10.41231 c -0.14467,-1.17017 -0.86495,-3.154667 -1.59349,-4.39037 -0.79994,-1.356809 -2.51599,-3.146487 -3.862679,-4.028416 -1.560123,-1.021703 -3.03379,-1.532486 -5.176056,-1.794055 -1.09214,-0.13335 -1.122072,-0.129082 -2.645833,0.377273 -2.202341,0.731851 -7.252751,2.49084 -12.912776,4.497345 -2.689108,0.953301 -4.966178,1.733275 -5.060156,1.733275 -0.09398,0 -0.170877,0.04465 -0.17089,0.09922 -1.2e-5,0.05457 5.223855,0.0892 11.608594,0.07695 6.496022,-0.01246 12.070701,0.03202 12.657825,0.100998 2.277058,0.267516 4.482261,1.366534 6.193951,3.086905 0.52741,0.530085 0.98066,0.972287 1.00724,0.982671 0.0266,0.01038 0.006,-0.323424 -0.0457,-0.741796 z M 33.962584,86.943087 c 0.452938,-0.289221 1.226844,-0.687588 1.719792,-0.88526 1.991278,-0.798504 1.610361,-0.775935 13.794705,-0.817331 6.148255,-0.02089 11.444409,-0.03948 11.769233,-0.04132 0.517674,-0.0029 0.566672,-0.02714 0.396875,-0.196102 -0.106542,-0.106017 -1.146213,-0.528335 -2.31038,-0.938485 -5.484456,-1.932241 -10.177106,-3.597566 -12.851231,-4.560639 -2.696683,-0.971197 -3.009729,-1.054993 -3.941254,-1.054993 -4.091635,0 -8.095183,2.615248 -10.045859,6.562283 -0.483922,0.979177 -1.065612,2.784848 -1.21013,3.756467 l -0.08855,0.595312 0.971636,-0.947037 c 0.5344,-0.52087 1.342222,-1.183672 1.79516,-1.472892 z m 32.68071,-8.728119 0.03444,-5.834382 0.3472,-0.273107 c 0.470519,-0.37011 1.040699,-0.349704 1.442011,0.05161 l 0.324716,0.324716 v 5.752893 c 0,3.199283 0.05203,5.785049 0.117216,5.825336 0.06447,0.03984 1.44857,-0.407784 3.075781,-0.994729 7.335845,-2.646084 12.485488,-4.462113 16.452315,-5.801932 l 1.852083,-0.625552 0.03369,-13.581369 c 0.01853,-7.469753 0.0017,-13.581369 -0.03731,-13.581369 -0.03905,0 -4.013044,1.222924 -8.83109,2.71761 -4.818045,1.494686 -9.563754,2.964064 -10.546019,3.265285 -0.982266,0.301222 -1.860352,0.603633 -1.951302,0.672026 -0.124165,0.09337 -0.165365,0.907694 -0.165365,3.268496 0,2.887938 -0.02041,3.16935 -0.25046,3.453451 -0.34491,0.425946 -1.212985,0.432023 -1.633572,0.01144 -0.29386,-0.29386 -0.297296,-0.33743 -0.255388,-3.238139 0.02336,-1.617149 -0.0111,-3.082798 -0.07658,-3.256997 -0.107043,-0.284769 -0.778776,-0.521681 -6.657519,-2.348019 -3.596154,-1.117211 -8.355901,-2.59691 -10.577215,-3.288221 -2.221315,-0.691311 -4.081666,-1.256929 -4.134115,-1.256929 -0.05245,0 -0.09536,2.708671 -0.09536,6.01927 v 6.019271 h 5.291666 5.291667 l 0.002,-2.017448 c 0.0021,-2.16451 0.07171,-2.462581 0.680692,-2.914617 0.276039,-0.204897 0.461435,-0.241267 0.859895,-0.168686 0.44808,0.08162 1.088986,0.672141 5.434888,5.007634 2.747506,2.740924 5.023693,5.119069 5.145711,5.376202 0.192899,0.406505 0.196929,0.518711 0.03403,0.947705 -0.246846,0.650077 -9.529617,9.819382 -10.242396,10.1172 -0.630846,0.263584 -1.156106,0.143749 -1.580467,-0.360575 -0.327848,-0.389626 -0.334305,-0.439265 -0.334305,-2.569962 v -2.172662 h -5.295203 -5.295203 l 0.03661,1.934487 0.03661,1.934487 1.852083,0.65033 c 1.018646,0.357681 2.774818,0.970387 3.902604,1.361568 2.434963,0.844586 11.408929,4.026723 13.758333,4.878658 0.909505,0.329802 1.713177,0.583838 1.785937,0.564523 0.085,-0.02256 0.144604,-2.120794 0.166735,-5.869498 z m -4.928343,-7.402331 c 1.943913,-1.972006 3.445445,-3.597273 3.395657,-3.67548 -0.04909,-0.07711 -1.681718,-1.709918 -3.628059,-3.628457 l -3.538802,-3.488254 v 1.735121 c 0,1.580068 -0.02287,1.747358 -0.255886,1.872067 -0.169405,0.09066 -3.388553,0.136946 -9.525,0.136946 h -9.269113 v 3.373437 3.373438 h 9.317113 c 8.293713,0 9.339947,0.02283 9.524999,0.207887 0.167549,0.167548 0.207887,0.539761 0.207887,1.918229 0,1.138491 0.04786,1.710342 0.143146,1.710342 0.07873,0 1.711356,-1.590874 3.628058,-3.535276 z m 8.981474,-17.710001 c 4.720146,-1.40829 5.713682,-1.735831 5.503571,-1.814375 -0.109141,-0.0408 -3.323828,-1.00482 -7.14375,-2.14227 -3.819921,-1.137449 -8.038524,-2.397241 -9.374672,-2.799537 -1.379157,-0.415245 -2.58013,-0.706105 -2.778125,-0.672824 -0.67645,0.113705 -8.287636,2.118911 -8.389145,2.210164 -0.05658,0.05087 1.401932,0.556621 3.241146,1.123898 4.361971,1.345382 15.609201,4.83696 15.779442,4.898554 0.07276,0.02632 0.155997,0.05256 0.184971,0.05831 0.02897,0.0057 1.368426,-0.382119 2.976562,-0.861917 z m 13.139076,-4.02243 c 1.687201,-0.509323 3.100212,-0.926042 3.140025,-0.926042 0.03981,0 0.07239,-0.05953 0.07239,-0.132292 0,-0.07276 -0.08234,-0.132291 -0.182972,-0.132291 -0.191133,0 -3.532582,-0.907767 -10.466507,-2.843422 -6.200917,-1.731031 -8.379868,-2.315836 -8.633385,-2.317103 -0.185211,-9.25e-4 -5.233655,1.412796 -5.984843,1.675942 -0.109141,0.03823 0.456406,0.267248 1.256771,0.508922 2.023076,0.610878 9.504297,2.831866 12.766145,3.78995 1.491588,0.438115 3.039401,0.90568 3.439583,1.039031 0.400182,0.133352 0.907054,0.247158 1.126381,0.252902 0.219328,0.0057 1.779215,-0.406274 3.466416,-0.915597 z M 59.257317,36.736384 c -1.369851,-0.387254 -2.397292,-1.271503 -3.019985,-2.599099 -0.464732,-0.99082 -0.486081,-2.778133 -0.04473,-3.74446 0.401822,-0.879772 1.383758,-1.880669 2.263589,-2.307298 0.647218,-0.313836 0.908284,-0.361542 2.001094,-0.365673 1.113517,-0.0042 1.342574,0.03738 2.009522,0.364903 0.979644,0.481074 1.982916,1.57563 2.359588,2.574277 0.408527,1.083101 0.325622,2.571778 -0.202875,3.642934 -0.951564,1.928624 -3.333298,3.009114 -5.366206,2.434416 z M 61.8572,34.594905 c 1.327941,-0.778225 1.692565,-2.712087 0.735504,-3.90091 -1.160978,-1.44212 -3.122657,-1.42585 -4.299695,0.03566 -0.332747,0.413167 -0.41285,0.647925 -0.456847,1.338887 -0.06213,0.975747 0.145678,1.526695 0.82373,2.183888 0.886505,0.859235 2.094694,0.988647 3.197308,0.342472 z m 11.808641,2.130096 c -1.343785,-0.480012 -2.284979,-1.326737 -2.876427,-2.587716 -0.286083,-0.609937 -0.344105,-0.923246 -0.344105,-1.85812 0,-0.938539 0.05765,-1.247419 0.34861,-1.86796 1.364784,-2.910671 4.930496,-3.639253 7.25921,-1.483275 1.758652,1.628202 2.049115,3.885263 0.760527,5.909734 -0.456309,0.716897 -1.466505,1.524443 -2.318681,1.853544 -0.677033,0.261463 -2.142764,0.278971 -2.829134,0.03379 z m 2.506352,-1.91942 c 2.036708,-1.044485 1.955183,-3.961822 -0.135118,-4.835206 -2.295879,-0.95928 -4.547657,1.399664 -3.429074,3.592268 0.654527,1.282978 2.339986,1.870747 3.564192,1.242938 z m 12.229083,1.906536 c -1.432807,-0.401876 -2.339256,-1.140341 -2.968381,-2.418275 -0.394917,-0.802191 -0.435504,-0.995853 -0.435504,-2.078041 0,-1.038688 0.04792,-1.290997 0.369654,-1.946158 0.845613,-1.721976 2.666675,-2.742777 4.603341,-2.580414 1.142741,0.0958 1.920699,0.438557 2.744597,1.209217 1.629307,1.524026 1.914487,4.059591 0.668211,5.941125 -1.022639,1.543902 -3.215293,2.368052 -4.981918,1.872546 z m 1.86856,-1.797899 c 0.65293,-0.1813 1.614689,-1.065736 1.813292,-1.667508 0.08466,-0.256529 0.128493,-0.818095 0.0974,-1.247925 -0.06241,-0.862767 -0.280269,-1.243056 -1.085489,-1.894775 -0.461243,-0.373315 -0.578856,-0.404532 -1.524105,-0.404532 -0.903185,0 -1.086671,0.04323 -1.551882,0.36562 -1.826691,1.265898 -1.427115,4.095153 0.682504,4.832575 0.525522,0.183698 0.950161,0.188177 1.568278,0.01655 z m -45.851244,1.662607 c -1.247247,-0.458141 -2.344883,-1.576766 -2.806322,-2.859983 -0.32406,-0.901182 -0.238982,-2.59393 0.172899,-3.44006 0.47867,-0.983334 1.139474,-1.650671 2.10536,-2.126175 0.80272,-0.395178 0.995139,-0.435442 2.078041,-0.434836 1.434154,8.04e-4 2.101736,0.258116 3.105429,1.196953 1.31955,1.234284 1.747573,2.906049 1.203039,4.698809 -0.25384,0.835713 -0.400064,1.070273 -1.108426,1.778052 -1.026086,1.025241 -1.904244,1.391825 -3.301442,1.378175 -0.524783,-0.0051 -1.176644,-0.09105 -1.448578,-0.190935 z m 2.894113,-2.060096 c 2.219302,-1.371604 1.229958,-4.89559 -1.370177,-4.880492 -1.329031,0.0077 -2.68168,1.340819 -2.68168,2.642928 0,0.891854 0.748657,1.983431 1.651036,2.40729 0.67789,0.318413 1.731516,0.243927 2.400821,-0.169726 z"
           id="path18" /></g></g><path
       id="rect33"
       style="fill:#efe3d9;fill-opacity:1;stroke:#ffffff;stroke-width:0.167115"
       d="m 79.714455,70.361565 6.894487,-2.116667 c 0.549782,-0.168787 1.038101,0.462993 1.038101,1.038101 v 3.598361 c 0,0.575108 -0.49293,0.854967 -1.038101,1.038101 l -6.880583,2.311327 c -0.54517,0.183134 -1.035993,-0.462997 -1.038102,-1.038101 l -0.0139,-3.793021 c -0.0021,-0.575104 0.48832,-0.869313 1.038102,-1.038101 z" /></g></svg>
